<svg xmlns="http://www.w3.org/2000/svg" xmlns:xlink="http://www.w3.org/1999/xlink" width="500" zoomAndPan="magnify" viewBox="0 0 375 374.999991" height="500" preserveAspectRatio="xMidYMid meet" version="1.0"><defs><clipPath id="eb87a1b2d5"><path d="M 61 42 L 314 42 L 314 333 L 61 333 Z M 61 42 " clip-rule="nonzero"/></clipPath><clipPath id="65058cea8a"><path d="M 0 149.777344 L 251.605469 7.304688 L 375 225.21875 L 123.398438 367.691406 Z M 0 149.777344 " clip-rule="nonzero"/></clipPath><clipPath id="9e541e2df4"><path d="M 188.703125 42.921875 L 62.902344 114.160156 L 61.699219 258.734375 L 186.296875 332.074219 L 312.101562 260.835938 L 313.304688 116.261719 Z M 188.703125 42.921875 " clip-rule="nonzero"/></clipPath><clipPath id="e3937ca8e0"><path d="M 84.988281 84.988281 L 289.738281 84.988281 L 289.738281 289.738281 L 84.988281 289.738281 Z M 84.988281 84.988281 " clip-rule="nonzero"/></clipPath></defs><g clip-path="url(#eb87a1b2d5)"><g clip-path="url(#65058cea8a)"><g clip-path="url(#9e541e2df4)"><path fill="#004aad" d="M 0 149.777344 L 251.605469 7.304688 L 375 225.21875 L 123.398438 367.691406 Z M 0 149.777344 " fill-opacity="1" fill-rule="nonzero"/></g></g></g><g clip-path="url(#e3937ca8e0)"><path fill="#5ce1e6" d="M 284.539062 229.679688 L 284.539062 208.34375 C 284.539062 207.371094 283.75 206.585938 282.78125 206.585938 L 253.851562 206.585938 C 255.765625 201.046875 257.003906 195.195312 257.46875 189.128906 L 268.4375 189.128906 C 269.226562 192.273438 272.066406 194.609375 275.449219 194.609375 C 279.445312 194.609375 282.691406 191.363281 282.691406 187.371094 C 282.691406 183.378906 279.445312 180.132812 275.449219 180.132812 C 272.066406 180.132812 269.222656 182.46875 268.4375 185.613281 L 257.648438 185.613281 C 257.664062 184.992188 257.671875 184.371094 257.671875 183.746094 C 257.671875 178.554688 257.101562 173.496094 256.027344 168.621094 L 269.972656 168.621094 C 270.941406 168.621094 271.730469 167.835938 271.730469 166.863281 L 271.730469 148.886719 C 274.871094 148.097656 277.210938 145.257812 277.210938 141.871094 C 277.210938 137.882812 273.960938 134.632812 269.96875 134.632812 C 265.976562 134.632812 262.730469 137.882812 262.730469 141.871094 C 262.730469 145.257812 265.070312 148.101562 268.214844 148.890625 L 268.214844 165.109375 L 255.15625 165.109375 C 248.976562 142.707031 231.949219 124.761719 210.105469 117.308594 L 210.105469 93.976562 L 229.679688 93.976562 C 230.46875 97.117188 233.308594 99.457031 236.691406 99.457031 C 240.683594 99.457031 243.929688 96.207031 243.929688 92.214844 C 243.929688 88.226562 240.683594 84.980469 236.691406 84.980469 C 233.308594 84.980469 230.46875 87.316406 229.679688 90.457031 L 208.339844 90.457031 C 207.371094 90.457031 206.582031 91.242188 206.582031 92.214844 L 206.582031 116.210938 C 201.015625 114.632812 195.164062 113.730469 189.128906 113.59375 L 189.128906 106.558594 C 192.273438 105.769531 194.609375 102.925781 194.609375 99.542969 C 194.609375 95.550781 191.363281 92.304688 187.371094 92.304688 C 183.378906 92.304688 180.132812 95.550781 180.132812 99.542969 C 180.132812 102.925781 182.46875 105.769531 185.613281 106.558594 L 185.613281 113.597656 C 179.742188 113.753906 174.050781 114.632812 168.621094 116.152344 L 168.621094 105.027344 C 168.621094 104.054688 167.832031 103.269531 166.863281 103.269531 L 148.890625 103.269531 C 148.101562 100.125 145.257812 97.785156 141.875 97.785156 C 137.882812 97.785156 134.632812 101.03125 134.632812 105.023438 C 134.632812 109.015625 137.882812 112.265625 141.875 112.265625 C 145.257812 112.265625 148.101562 109.925781 148.890625 106.785156 L 165.105469 106.785156 L 165.105469 117.234375 C 143.226562 124.621094 126.144531 142.519531 119.898438 164.894531 L 93.976562 164.894531 L 93.976562 145.316406 C 97.117188 144.527344 99.457031 141.6875 99.457031 138.304688 C 99.457031 134.3125 96.207031 131.066406 92.214844 131.066406 C 88.226562 131.066406 84.980469 134.3125 84.980469 138.304688 C 84.980469 141.6875 87.316406 144.53125 90.460938 145.316406 L 90.460938 166.652344 C 90.460938 167.621094 91.246094 168.410156 92.21875 168.410156 L 119.015625 168.410156 C 117.914062 173.347656 117.324219 178.480469 117.324219 183.746094 C 117.324219 184.453125 117.339844 185.160156 117.359375 185.863281 L 106.558594 185.863281 C 105.769531 182.722656 102.925781 180.386719 99.542969 180.386719 C 95.550781 180.386719 92.304688 183.632812 92.304688 187.625 C 92.304688 191.617188 95.550781 194.863281 99.542969 194.863281 C 102.925781 194.863281 105.769531 192.527344 106.558594 189.382812 L 117.550781 189.382812 C 118.023438 195.28125 119.226562 200.972656 121.066406 206.371094 L 105.023438 206.371094 C 104.054688 206.371094 103.265625 207.160156 103.265625 208.128906 L 103.265625 226.109375 C 100.125 226.894531 97.785156 229.738281 97.785156 233.121094 C 97.785156 237.113281 101.035156 240.363281 105.023438 240.363281 C 109.015625 240.363281 112.265625 237.113281 112.265625 233.121094 C 112.265625 229.738281 109.925781 226.894531 106.78125 226.109375 L 106.78125 209.886719 L 122.378906 209.886719 C 129.980469 228.75 145.546875 243.582031 164.894531 250.183594 L 164.894531 281.019531 L 145.316406 281.019531 C 144.527344 277.875 141.6875 275.539062 138.304688 275.539062 C 134.3125 275.539062 131.066406 278.785156 131.066406 282.777344 C 131.066406 286.769531 134.3125 290.015625 138.304688 290.015625 C 141.6875 290.015625 144.527344 287.679688 145.316406 284.539062 L 166.652344 284.539062 C 167.621094 284.539062 168.410156 283.75 168.410156 282.777344 L 168.410156 251.28125 C 173.980469 252.855469 179.832031 253.761719 185.867188 253.898438 L 185.867188 268.4375 C 184.605469 268.75 183.449219 269.390625 182.507812 270.332031 C 181.140625 271.699219 180.386719 273.519531 180.386719 275.453125 C 180.386719 279.445312 183.632812 282.691406 187.625 282.691406 C 191.617188 282.691406 194.863281 279.445312 194.863281 275.453125 C 194.863281 272.066406 192.527344 269.226562 189.382812 268.4375 L 189.382812 253.894531 C 195.253906 253.738281 200.941406 252.855469 206.371094 251.339844 L 206.371094 269.96875 C 206.371094 270.320312 206.476562 270.644531 206.65625 270.921875 C 206.664062 270.929688 206.664062 270.941406 206.671875 270.949219 C 206.683594 270.96875 206.699219 270.984375 206.714844 271 C 206.769531 271.074219 206.824219 271.148438 206.890625 271.214844 C 207.21875 271.546875 207.667969 271.730469 208.132812 271.730469 L 226.105469 271.726562 C 226.894531 274.871094 229.738281 277.210938 233.125 277.210938 C 237.113281 277.210938 240.363281 273.960938 240.363281 269.96875 C 240.363281 265.976562 237.113281 262.730469 233.125 262.730469 C 229.738281 262.730469 226.898438 265.066406 226.109375 268.210938 L 209.890625 268.210938 L 209.890625 250.253906 C 229.261719 243.714844 244.871094 228.933594 252.53125 210.101562 L 281.023438 210.101562 L 281.023438 229.675781 C 277.878906 230.464844 275.539062 233.308594 275.539062 236.691406 C 275.539062 240.683594 278.789062 243.929688 282.78125 243.929688 C 286.769531 243.929688 290.019531 240.683594 290.019531 236.691406 C 290.015625 233.308594 287.679688 230.46875 284.539062 229.679688 Z M 275.449219 183.648438 C 277.503906 183.648438 279.175781 185.316406 279.175781 187.371094 C 279.175781 189.425781 277.503906 191.09375 275.449219 191.09375 C 273.402344 191.09375 271.734375 189.429688 271.726562 187.382812 C 271.726562 187.378906 271.730469 187.375 271.730469 187.375 C 271.730469 187.371094 271.726562 187.367188 271.726562 187.359375 C 271.734375 185.3125 273.402344 183.648438 275.449219 183.648438 Z M 266.246094 141.871094 C 266.246094 139.820312 267.917969 138.148438 269.972656 138.148438 C 272.023438 138.148438 273.695312 139.820312 273.695312 141.871094 C 273.695312 143.925781 272.023438 145.597656 269.972656 145.597656 C 267.917969 145.597656 266.246094 143.925781 266.246094 141.871094 Z M 236.691406 88.496094 C 238.746094 88.496094 240.414062 90.164062 240.414062 92.214844 C 240.414062 94.269531 238.746094 95.941406 236.691406 95.941406 C 234.640625 95.941406 232.96875 94.269531 232.96875 92.214844 C 232.96875 90.164062 234.640625 88.496094 236.691406 88.496094 Z M 141.875 108.75 C 139.820312 108.75 138.148438 107.078125 138.148438 105.023438 C 138.148438 102.972656 139.820312 101.300781 141.875 101.300781 C 143.929688 101.300781 145.597656 102.972656 145.597656 105.023438 C 145.597656 107.078125 143.929688 108.75 141.875 108.75 Z M 92.214844 142.027344 C 90.164062 142.027344 88.492188 140.359375 88.492188 138.304688 C 88.492188 136.25 90.164062 134.582031 92.214844 134.582031 C 94.269531 134.582031 95.941406 136.25 95.941406 138.304688 C 95.941406 140.355469 94.269531 142.027344 92.214844 142.027344 Z M 99.542969 191.351562 C 97.488281 191.351562 95.820312 189.679688 95.820312 187.625 C 95.820312 185.570312 97.488281 183.902344 99.542969 183.902344 C 101.597656 183.902344 103.265625 185.570312 103.265625 187.625 C 103.265625 189.679688 101.597656 191.351562 99.542969 191.351562 Z M 108.75 233.121094 C 108.75 235.175781 107.078125 236.847656 105.023438 236.847656 C 102.972656 236.847656 101.300781 235.175781 101.300781 233.121094 C 101.300781 231.066406 102.972656 229.398438 105.023438 229.398438 C 107.078125 229.398438 108.75 231.066406 108.75 233.121094 Z M 138.304688 286.5 C 136.25 286.5 134.582031 284.832031 134.582031 282.777344 C 134.582031 280.722656 136.25 279.054688 138.304688 279.054688 C 140.359375 279.054688 142.027344 280.722656 142.027344 282.777344 C 142.027344 284.832031 140.359375 286.5 138.304688 286.5 Z M 233.125 266.246094 C 235.175781 266.246094 236.847656 267.917969 236.847656 269.972656 C 236.847656 272.023438 235.175781 273.695312 233.125 273.695312 C 231.070312 273.695312 229.398438 272.023438 229.398438 269.972656 C 229.398438 267.917969 231.070312 266.246094 233.125 266.246094 Z M 183.648438 99.542969 C 183.648438 97.488281 185.316406 95.820312 187.371094 95.820312 C 189.425781 95.820312 191.09375 97.488281 191.09375 99.542969 C 191.09375 101.597656 189.425781 103.265625 187.371094 103.265625 C 185.316406 103.265625 183.648438 101.597656 183.648438 99.542969 Z M 191.347656 275.453125 C 191.347656 277.503906 189.679688 279.175781 187.625 279.175781 C 185.570312 279.175781 183.902344 277.503906 183.902344 275.453125 C 183.902344 274.457031 184.289062 273.519531 184.992188 272.820312 C 185.695312 272.117188 186.625 271.730469 187.621094 271.726562 C 187.621094 271.726562 187.625 271.730469 187.625 271.730469 C 187.628906 271.730469 187.628906 271.726562 187.632812 271.726562 C 189.683594 271.730469 191.347656 273.402344 191.347656 275.453125 Z M 187.5 250.402344 C 150.742188 250.402344 120.839844 220.5 120.839844 183.746094 C 120.839844 146.988281 150.742188 117.085938 187.5 117.085938 C 224.253906 117.085938 254.15625 146.988281 254.15625 183.746094 C 254.15625 220.5 224.253906 250.402344 187.5 250.402344 Z M 282.78125 240.414062 C 280.726562 240.414062 279.054688 238.746094 279.054688 236.691406 C 279.054688 234.640625 280.726562 232.96875 282.78125 232.96875 C 284.832031 232.96875 286.503906 234.640625 286.503906 236.691406 C 286.503906 238.746094 284.832031 240.414062 282.78125 240.414062 Z M 282.78125 240.414062 " fill-opacity="1" fill-rule="nonzero"/></g><path fill="#5ce1e6" d="M 187.558594 239.644531 L 187.496094 239.644531 C 173.328125 239.644531 159.8125 234.332031 149.441406 224.691406 C 149.441406 224.6875 149.441406 224.6875 149.4375 224.6875 C 149.332031 224.589844 149.226562 224.492188 149.125 224.390625 C 149.070312 224.339844 149.011719 224.292969 148.953125 224.25 C 148.90625 224.191406 148.859375 224.140625 148.804688 224.085938 L 148.492188 223.785156 C 147.796875 223.105469 146.683594 223.121094 146.007812 223.816406 C 145.328125 224.507812 145.34375 225.621094 146.035156 226.300781 L 146.371094 226.625 C 146.429688 226.679688 146.488281 226.726562 146.550781 226.773438 C 146.597656 226.832031 146.648438 226.886719 146.703125 226.941406 C 146.816406 227.046875 146.929688 227.152344 147.046875 227.261719 C 158.070312 237.511719 172.4375 243.160156 187.5 243.160156 L 187.558594 243.160156 C 188.53125 243.160156 189.316406 242.371094 189.316406 241.402344 C 189.316406 240.429688 188.53125 239.644531 187.558594 239.644531 Z M 187.558594 239.644531 " fill-opacity="1" fill-rule="nonzero"/><path fill="#5ce1e6" d="M 238.339844 211.019531 C 237.496094 210.53125 236.421875 210.820312 235.9375 211.660156 C 228.824219 223.976562 217.453125 233.042969 203.910156 237.195312 C 203.898438 237.199219 203.890625 237.203125 203.878906 237.207031 L 203.492188 237.320312 C 203.421875 237.34375 203.351562 237.367188 203.285156 237.398438 C 203.214844 237.410156 203.144531 237.425781 203.074219 237.445312 L 202.652344 237.566406 C 201.71875 237.828125 201.171875 238.800781 201.4375 239.734375 C 201.65625 240.507812 202.359375 241.015625 203.128906 241.015625 C 203.285156 241.015625 203.445312 240.992188 203.605469 240.949219 L 204.050781 240.824219 C 204.125 240.800781 204.199219 240.773438 204.269531 240.742188 C 204.34375 240.730469 204.421875 240.714844 204.496094 240.691406 C 204.644531 240.648438 204.796875 240.601562 204.945312 240.554688 C 204.957031 240.550781 204.96875 240.546875 204.976562 240.546875 C 219.355469 236.125 231.429688 226.492188 238.980469 213.417969 C 239.46875 212.578125 239.179688 211.503906 238.339844 211.019531 Z M 238.339844 211.019531 " fill-opacity="1" fill-rule="nonzero"/><path fill="#5ce1e6" d="M 238.949219 154.015625 C 238.460938 153.175781 237.390625 152.886719 236.546875 153.375 C 235.707031 153.859375 235.421875 154.9375 235.90625 155.777344 C 240.804688 164.238281 243.398438 173.910156 243.398438 183.746094 C 243.398438 187.972656 242.921875 192.191406 241.988281 196.273438 L 241.890625 196.699219 C 241.871094 196.769531 241.859375 196.84375 241.851562 196.914062 C 241.824219 196.980469 241.804688 197.050781 241.785156 197.121094 L 241.679688 197.550781 C 241.441406 198.492188 242.015625 199.449219 242.957031 199.683594 C 243.101562 199.722656 243.242188 199.738281 243.386719 199.738281 C 244.171875 199.738281 244.890625 199.207031 245.089844 198.40625 L 245.199219 197.964844 C 245.21875 197.886719 245.230469 197.808594 245.242188 197.734375 C 245.269531 197.664062 245.289062 197.589844 245.308594 197.511719 L 245.414062 197.066406 C 245.414062 197.066406 245.414062 197.0625 245.414062 197.0625 L 245.414062 197.058594 C 245.414062 197.054688 245.414062 197.054688 245.414062 197.050781 C 246.410156 192.714844 246.910156 188.234375 246.910156 183.746094 C 246.910156 173.292969 244.160156 163.011719 238.949219 154.015625 Z M 238.949219 154.015625 " fill-opacity="1" fill-rule="nonzero"/><path fill="#5ce1e6" d="M 131.597656 183.746094 C 131.597656 179.535156 132.070312 175.339844 132.996094 171.273438 L 133.09375 170.847656 C 133.109375 170.777344 133.121094 170.703125 133.132812 170.632812 C 133.15625 170.566406 133.179688 170.496094 133.195312 170.421875 L 133.300781 170 C 133.539062 169.058594 132.96875 168.105469 132.027344 167.867188 C 131.085938 167.628906 130.132812 168.195312 129.894531 169.136719 L 129.78125 169.589844 C 129.761719 169.667969 129.75 169.742188 129.738281 169.820312 C 129.710938 169.890625 129.691406 169.964844 129.671875 170.039062 L 129.570312 170.480469 C 129.570312 170.484375 129.570312 170.488281 129.566406 170.492188 C 129.566406 170.492188 129.566406 170.496094 129.566406 170.496094 C 128.582031 174.816406 128.085938 179.273438 128.085938 183.746094 C 128.085938 194.222656 130.847656 204.519531 136.078125 213.53125 C 136.402344 214.09375 136.992188 214.40625 137.597656 214.40625 C 137.898438 214.40625 138.203125 214.328125 138.480469 214.167969 C 139.320312 213.679688 139.605469 212.605469 139.117188 211.765625 C 134.199219 203.292969 131.597656 193.601562 131.597656 183.746094 Z M 131.597656 183.746094 " fill-opacity="1" fill-rule="nonzero"/><path fill="#5ce1e6" d="M 136.628906 156.523438 C 136.90625 156.683594 137.207031 156.761719 137.503906 156.761719 C 138.113281 156.761719 138.703125 156.445312 139.027344 155.878906 C 146.128906 143.558594 157.488281 134.480469 171.023438 130.3125 C 171.027344 130.3125 171.027344 130.3125 171.03125 130.3125 L 171.449219 130.183594 C 171.519531 130.164062 171.585938 130.136719 171.652344 130.109375 C 171.722656 130.097656 171.792969 130.082031 171.867188 130.0625 L 172.285156 129.941406 C 173.21875 129.675781 173.765625 128.707031 173.5 127.773438 C 173.238281 126.839844 172.269531 126.296875 171.332031 126.558594 L 170.886719 126.683594 C 170.808594 126.707031 170.738281 126.734375 170.667969 126.765625 C 170.589844 126.777344 170.515625 126.792969 170.4375 126.816406 L 170.011719 126.949219 C 170.003906 126.949219 170 126.949219 169.996094 126.953125 C 155.605469 131.382812 143.527344 141.03125 135.984375 154.125 C 135.5 154.964844 135.789062 156.039062 136.628906 156.523438 Z M 136.628906 156.523438 " fill-opacity="1" fill-rule="nonzero"/><path fill="#5ce1e6" d="M 187.375 127.847656 L 187.496094 127.847656 C 201.691406 127.847656 215.222656 133.171875 225.597656 142.84375 L 225.917969 143.140625 C 225.96875 143.191406 226.027344 143.242188 226.085938 143.285156 C 226.132812 143.339844 226.179688 143.390625 226.234375 143.441406 L 226.550781 143.75 C 226.890625 144.082031 227.332031 144.246094 227.777344 144.246094 C 228.234375 144.246094 228.691406 144.070312 229.035156 143.714844 C 229.710938 143.019531 229.699219 141.90625 229.003906 141.230469 L 228.671875 140.910156 C 228.613281 140.855469 228.554688 140.804688 228.492188 140.757812 C 228.445312 140.699219 228.390625 140.644531 228.335938 140.589844 L 228.003906 140.28125 C 228.003906 140.277344 228 140.277344 227.996094 140.273438 L 227.996094 140.269531 C 227.996094 140.269531 227.992188 140.269531 227.992188 140.265625 C 216.960938 129.992188 202.582031 124.332031 187.488281 124.332031 L 187.375 124.332031 C 186.40625 124.332031 185.617188 125.117188 185.617188 126.089844 C 185.617188 127.058594 186.40625 127.847656 187.375 127.847656 Z M 187.375 127.847656 " fill-opacity="1" fill-rule="nonzero"/><path fill="#5ce1e6" d="M 233.390625 183.746094 C 233.390625 192.808594 230.75 201.574219 225.761719 209.09375 C 225.757812 209.097656 225.757812 209.097656 225.757812 209.101562 C 225.679688 209.21875 225.597656 209.335938 225.519531 209.453125 C 225.476562 209.515625 225.441406 209.578125 225.40625 209.640625 C 225.359375 209.695312 225.316406 209.75 225.273438 209.8125 L 225.027344 210.167969 C 224.46875 210.960938 224.65625 212.058594 225.453125 212.617188 C 225.757812 212.832031 226.113281 212.9375 226.460938 212.9375 C 227.015625 212.9375 227.558594 212.675781 227.902344 212.191406 L 228.164062 211.8125 C 228.210938 211.746094 228.25 211.679688 228.285156 211.613281 C 228.335938 211.554688 228.382812 211.496094 228.425781 211.429688 C 228.515625 211.300781 228.601562 211.171875 228.6875 211.042969 C 228.6875 211.039062 228.6875 211.039062 228.6875 211.039062 C 234.0625 202.941406 236.90625 193.503906 236.90625 183.746094 C 236.90625 178.519531 236.09375 173.375 234.492188 168.453125 C 234.191406 167.527344 233.199219 167.023438 232.277344 167.324219 C 231.355469 167.625 230.847656 168.617188 231.148438 169.539062 C 232.636719 174.109375 233.390625 178.890625 233.390625 183.746094 Z M 233.390625 183.746094 " fill-opacity="1" fill-rule="nonzero"/><path fill="#5ce1e6" d="M 172.949219 230.976562 C 173.097656 231.019531 173.246094 231.066406 173.394531 231.109375 C 173.46875 231.132812 173.542969 231.148438 173.621094 231.160156 C 173.691406 231.191406 173.761719 231.21875 173.835938 231.238281 L 174.269531 231.363281 C 174.273438 231.363281 174.277344 231.363281 174.28125 231.363281 L 174.28125 231.367188 C 174.285156 231.367188 174.285156 231.367188 174.289062 231.367188 C 178.570312 232.550781 183.015625 233.152344 187.496094 233.152344 C 198.035156 233.152344 208.089844 229.882812 216.578125 223.691406 C 217.363281 223.121094 217.535156 222.019531 216.964844 221.238281 C 216.390625 220.453125 215.292969 220.28125 214.507812 220.851562 C 206.625 226.601562 197.285156 229.636719 187.496094 229.636719 C 183.332031 229.636719 179.199219 229.078125 175.222656 227.980469 L 174.808594 227.863281 C 174.738281 227.839844 174.667969 227.824219 174.597656 227.816406 C 174.53125 227.785156 174.464844 227.761719 174.394531 227.742188 L 173.984375 227.617188 C 173.058594 227.332031 172.074219 227.851562 171.785156 228.777344 C 171.503906 229.707031 172.023438 230.691406 172.949219 230.976562 Z M 172.949219 230.976562 " fill-opacity="1" fill-rule="nonzero"/><path fill="#5ce1e6" d="M 158.507812 223.757812 C 158.820312 223.984375 159.179688 224.09375 159.539062 224.09375 C 160.082031 224.09375 160.621094 223.84375 160.964844 223.367188 C 161.535156 222.582031 161.359375 221.484375 160.574219 220.914062 C 149.160156 212.632812 142.265625 199.828125 141.648438 185.785156 C 141.648438 185.777344 141.648438 185.769531 141.648438 185.757812 L 141.632812 185.332031 C 141.628906 185.257812 141.625 185.1875 141.613281 185.117188 C 141.621094 185.046875 141.621094 184.972656 141.621094 184.902344 L 141.613281 184.46875 C 141.597656 183.5 140.792969 182.734375 139.828125 182.742188 C 138.855469 182.757812 138.082031 183.554688 138.097656 184.527344 L 138.105469 184.988281 C 138.109375 185.066406 138.117188 185.144531 138.125 185.21875 C 138.121094 185.292969 138.117188 185.371094 138.121094 185.449219 C 138.125 185.59375 138.128906 185.738281 138.136719 185.882812 C 138.136719 185.890625 138.136719 185.902344 138.136719 185.910156 C 138.789062 201.042969 146.214844 214.835938 158.507812 223.757812 Z M 158.507812 223.757812 " fill-opacity="1" fill-rule="nonzero"/><path fill="#5ce1e6" d="M 171.46875 136.996094 L 171.03125 137.148438 C 170.957031 137.175781 170.886719 137.207031 170.816406 137.238281 C 170.742188 137.257812 170.671875 137.277344 170.597656 137.304688 C 170.457031 137.355469 170.316406 137.40625 170.175781 137.460938 C 170.171875 137.460938 170.164062 137.464844 170.160156 137.464844 C 156.15625 142.714844 145.058594 154.339844 140.46875 168.558594 C 140.171875 169.484375 140.675781 170.472656 141.601562 170.773438 C 141.78125 170.832031 141.960938 170.859375 142.140625 170.859375 C 142.882812 170.859375 143.574219 170.382812 143.8125 169.640625 C 148.074219 156.433594 158.378906 145.640625 171.378906 140.761719 C 171.382812 140.761719 171.390625 140.757812 171.394531 140.757812 C 171.527344 140.707031 171.660156 140.65625 171.796875 140.609375 C 171.863281 140.582031 171.929688 140.554688 171.996094 140.523438 C 172.066406 140.507812 172.132812 140.488281 172.203125 140.464844 L 172.609375 140.320312 C 173.527344 140.003906 174.015625 139.003906 173.699219 138.085938 C 173.382812 137.167969 172.386719 136.679688 171.46875 136.996094 Z M 171.46875 136.996094 " fill-opacity="1" fill-rule="nonzero"/><path fill="#5ce1e6" d="M 187.390625 137.851562 L 187.496094 137.851562 C 201.574219 137.851562 214.675781 144.179688 223.445312 155.214844 C 223.445312 155.214844 223.449219 155.214844 223.449219 155.21875 L 223.714844 155.554688 C 223.757812 155.613281 223.804688 155.664062 223.855469 155.714844 C 223.890625 155.777344 223.933594 155.835938 223.976562 155.894531 L 224.238281 156.238281 C 224.582031 156.699219 225.109375 156.941406 225.644531 156.941406 C 226.011719 156.941406 226.382812 156.824219 226.695312 156.589844 C 227.472656 156.003906 227.628906 154.902344 227.046875 154.128906 C 226.953125 154.003906 226.863281 153.878906 226.769531 153.757812 C 226.71875 153.695312 226.667969 153.636719 226.617188 153.585938 C 226.578125 153.519531 226.53125 153.453125 226.484375 153.390625 L 226.210938 153.042969 C 226.207031 153.039062 226.203125 153.035156 226.199219 153.027344 C 216.757812 141.148438 202.652344 134.335938 187.488281 134.335938 L 187.390625 134.335938 C 186.417969 134.335938 185.632812 135.125 185.632812 136.09375 C 185.632812 137.066406 186.421875 137.851562 187.390625 137.851562 Z M 187.390625 137.851562 " fill-opacity="1" fill-rule="nonzero"/><path fill="#5ce1e6" d="M 171.824219 147.996094 C 171.683594 148.054688 171.542969 148.117188 171.40625 148.179688 C 171.335938 148.214844 171.269531 148.25 171.203125 148.289062 C 171.132812 148.3125 171.0625 148.339844 170.992188 148.371094 C 170.851562 148.4375 170.714844 148.5 170.582031 148.566406 C 170.578125 148.566406 170.578125 148.570312 170.574219 148.570312 C 157.148438 155.039062 148.472656 168.847656 148.472656 183.746094 L 148.472656 183.832031 C 148.472656 184.804688 149.257812 185.589844 150.230469 185.589844 C 151.199219 185.589844 151.988281 184.804688 151.988281 183.832031 L 151.988281 183.746094 C 151.988281 170.1875 159.882812 157.621094 172.105469 151.734375 C 172.230469 151.675781 172.355469 151.613281 172.480469 151.554688 C 172.542969 151.527344 172.605469 151.492188 172.664062 151.457031 C 172.726562 151.4375 172.792969 151.410156 172.855469 151.382812 C 172.980469 151.324219 173.109375 151.269531 173.234375 151.214844 C 174.125 150.824219 174.527344 149.789062 174.136719 148.898438 C 173.75 148.007812 172.710938 147.605469 171.824219 147.996094 Z M 171.824219 147.996094 " fill-opacity="1" fill-rule="nonzero"/><path fill="#5ce1e6" d="M 226.523438 183.714844 C 226.523438 182.746094 225.738281 181.972656 224.765625 181.972656 C 223.796875 181.972656 223.007812 182.773438 223.007812 183.746094 C 223.007812 197.328125 215.09375 209.902344 202.839844 215.78125 L 202.464844 215.957031 C 202.398438 215.988281 202.339844 216.019531 202.28125 216.054688 C 202.21875 216.078125 202.152344 216.101562 202.089844 216.128906 L 201.707031 216.300781 C 200.820312 216.691406 200.414062 217.726562 200.804688 218.617188 C 201.09375 219.273438 201.738281 219.667969 202.414062 219.667969 C 202.652344 219.667969 202.890625 219.621094 203.121094 219.519531 C 203.257812 219.457031 203.398438 219.398438 203.535156 219.335938 C 203.605469 219.304688 203.671875 219.265625 203.738281 219.226562 C 203.808594 219.203125 203.878906 219.175781 203.949219 219.144531 L 204.34375 218.960938 C 204.347656 218.957031 204.355469 218.953125 204.359375 218.949219 C 217.824219 212.488281 226.523438 198.671875 226.523438 183.746094 Z M 226.523438 183.714844 " fill-opacity="1" fill-rule="nonzero"/><path fill="#5ce1e6" d="M 187.382812 148.234375 C 187.382812 148.234375 187.386719 148.234375 187.390625 148.234375 L 187.496094 148.234375 C 201.09375 148.234375 213.671875 156.160156 219.546875 168.429688 L 219.722656 168.804688 C 219.753906 168.867188 219.785156 168.925781 219.820312 168.984375 C 219.839844 169.050781 219.867188 169.117188 219.894531 169.179688 C 219.953125 169.308594 220.007812 169.433594 220.0625 169.558594 C 220.351562 170.21875 220.996094 170.613281 221.675781 170.613281 C 221.910156 170.613281 222.148438 170.566406 222.375 170.46875 C 223.265625 170.082031 223.671875 169.042969 223.285156 168.15625 C 223.222656 168.015625 223.164062 167.875 223.097656 167.734375 C 223.066406 167.667969 223.03125 167.597656 222.992188 167.535156 C 222.972656 167.464844 222.941406 167.390625 222.910156 167.320312 C 222.84375 167.183594 222.78125 167.046875 222.71875 166.910156 C 222.714844 166.910156 222.714844 166.90625 222.714844 166.90625 C 216.257812 153.425781 202.4375 144.71875 187.5 144.71875 L 187.371094 144.71875 C 186.402344 144.722656 185.621094 145.515625 185.625 146.484375 C 185.628906 147.453125 186.414062 148.234375 187.382812 148.234375 Z M 187.382812 148.234375 " fill-opacity="1" fill-rule="nonzero"/><path fill="#5ce1e6" d="M 155.476562 199.113281 C 155.414062 198.988281 155.355469 198.863281 155.296875 198.738281 C 155.265625 198.675781 155.234375 198.613281 155.199219 198.554688 C 155.179688 198.492188 155.152344 198.425781 155.125 198.363281 L 154.953125 197.980469 C 154.5625 197.09375 153.523438 196.6875 152.636719 197.078125 C 151.75 197.472656 151.347656 198.507812 151.738281 199.394531 L 151.921875 199.808594 C 151.953125 199.878906 151.988281 199.945312 152.027344 200.011719 C 152.050781 200.082031 152.078125 200.15625 152.113281 200.226562 C 152.175781 200.359375 152.238281 200.496094 152.304688 200.628906 C 152.304688 200.632812 152.304688 200.632812 152.308594 200.636719 C 158.773438 214.082031 172.585938 222.773438 187.496094 222.773438 L 187.554688 222.773438 C 188.527344 222.773438 189.3125 221.984375 189.3125 221.015625 C 189.3125 220.042969 188.527344 219.257812 187.554688 219.257812 L 187.496094 219.257812 C 173.929688 219.257812 161.359375 211.347656 155.476562 199.113281 Z M 155.476562 199.113281 " fill-opacity="1" fill-rule="nonzero"/><path fill="#5ce1e6" d="M 176.25 206.960938 C 176.25 206.957031 176.25 206.957031 176.25 206.957031 C 176.125 206.898438 176.003906 206.835938 175.878906 206.777344 C 175.820312 206.746094 175.761719 206.71875 175.699219 206.695312 C 175.644531 206.660156 175.585938 206.625 175.527344 206.59375 C 175.40625 206.53125 175.289062 206.46875 175.167969 206.402344 C 174.316406 205.9375 173.25 206.25 172.785156 207.105469 C 172.320312 207.957031 172.632812 209.023438 173.488281 209.488281 C 173.621094 209.5625 173.753906 209.632812 173.890625 209.703125 C 173.960938 209.742188 174.03125 209.773438 174.101562 209.796875 C 174.164062 209.84375 174.234375 209.882812 174.304688 209.917969 C 174.4375 209.984375 174.574219 210.050781 174.707031 210.117188 C 174.710938 210.117188 174.710938 210.121094 174.714844 210.121094 C 178.714844 212.0625 183.015625 213.050781 187.5 213.050781 C 197.941406 213.050781 207.671875 207.425781 212.898438 198.371094 C 213.382812 197.53125 213.09375 196.457031 212.253906 195.972656 C 211.414062 195.484375 210.335938 195.773438 209.851562 196.613281 C 205.253906 204.582031 196.6875 209.535156 187.5 209.535156 C 183.554688 209.535156 179.769531 208.667969 176.25 206.960938 Z M 176.25 206.960938 " fill-opacity="1" fill-rule="nonzero"/><path fill="#5ce1e6" d="M 187.410156 157.957031 L 187.496094 157.957031 C 200.980469 157.957031 212.277344 168.476562 213.222656 181.910156 C 213.230469 182.042969 213.242188 182.179688 213.25 182.316406 C 213.25 182.382812 213.257812 182.449219 213.269531 182.515625 C 213.265625 182.582031 213.265625 182.648438 213.265625 182.714844 C 213.273438 182.851562 213.277344 182.984375 213.28125 183.117188 C 213.304688 184.074219 214.085938 184.832031 215.035156 184.832031 C 215.050781 184.832031 215.0625 184.832031 215.078125 184.832031 C 216.050781 184.808594 216.816406 184.003906 216.792969 183.035156 C 216.789062 182.882812 216.785156 182.730469 216.78125 182.578125 C 216.777344 182.5 216.769531 182.425781 216.753906 182.351562 C 216.761719 182.273438 216.761719 182.195312 216.757812 182.117188 C 216.75 181.964844 216.738281 181.816406 216.730469 181.667969 C 216.730469 181.664062 216.730469 181.664062 216.730469 181.664062 C 215.65625 166.398438 202.816406 154.441406 187.484375 154.441406 L 187.410156 154.441406 C 186.4375 154.441406 185.652344 155.226562 185.652344 156.199219 C 185.652344 157.167969 186.4375 157.957031 187.410156 157.957031 Z M 187.410156 157.957031 " fill-opacity="1" fill-rule="nonzero"/><path fill="#5ce1e6" d="M 172.179688 158.761719 C 172.050781 158.839844 171.917969 158.921875 171.792969 159.003906 C 171.726562 159.042969 171.664062 159.089844 171.605469 159.136719 C 171.539062 159.171875 171.46875 159.210938 171.40625 159.253906 C 171.277344 159.335938 171.152344 159.417969 171.027344 159.503906 C 162.992188 164.976562 158.195312 174.035156 158.195312 183.746094 C 158.195312 188.917969 159.5625 194.003906 162.144531 198.453125 C 162.472656 199.015625 163.0625 199.328125 163.667969 199.328125 C 163.96875 199.328125 164.269531 199.25 164.550781 199.089844 C 165.386719 198.601562 165.671875 197.523438 165.183594 196.6875 C 162.910156 192.773438 161.710938 188.296875 161.710938 183.746094 C 161.710938 175.203125 165.929688 167.226562 173 162.414062 C 173.003906 162.414062 173.003906 162.414062 173.003906 162.410156 C 173.117188 162.335938 173.230469 162.261719 173.34375 162.1875 C 173.398438 162.148438 173.453125 162.109375 173.503906 162.066406 C 173.5625 162.039062 173.621094 162.003906 173.675781 161.96875 C 173.789062 161.898438 173.902344 161.824219 174.019531 161.753906 C 174.84375 161.246094 175.105469 160.164062 174.597656 159.339844 C 174.085938 158.511719 173.007812 158.253906 172.179688 158.761719 Z M 172.179688 158.761719 " fill-opacity="1" fill-rule="nonzero"/><path fill="#5ce1e6" d="M 200.136719 193.929688 C 200.054688 194.03125 199.976562 194.128906 199.890625 194.226562 C 199.851562 194.273438 199.8125 194.324219 199.777344 194.375 C 199.730469 194.417969 199.6875 194.464844 199.644531 194.515625 C 199.558594 194.609375 199.476562 194.699219 199.390625 194.792969 C 198.726562 195.5 198.765625 196.613281 199.476562 197.277344 C 199.816406 197.59375 200.246094 197.75 200.675781 197.75 C 201.144531 197.75 201.613281 197.5625 201.960938 197.191406 C 202.066406 197.074219 202.171875 196.960938 202.273438 196.84375 C 202.328125 196.785156 202.375 196.726562 202.414062 196.664062 C 202.472656 196.609375 202.527344 196.554688 202.578125 196.492188 C 202.675781 196.375 202.773438 196.257812 202.871094 196.140625 C 202.871094 196.136719 202.871094 196.136719 202.871094 196.136719 C 205.691406 192.644531 207.246094 188.242188 207.246094 183.746094 C 207.246094 172.855469 198.386719 164 187.480469 164 L 187.425781 164 C 186.457031 164 185.667969 164.785156 185.667969 165.757812 C 185.667969 166.726562 186.457031 167.515625 187.425781 167.515625 L 187.496094 167.515625 C 196.449219 167.515625 203.730469 174.796875 203.730469 183.746094 C 203.730469 187.496094 202.488281 191.015625 200.136719 193.929688 Z M 200.136719 193.929688 " fill-opacity="1" fill-rule="nonzero"/><path fill="#5ce1e6" d="M 173.007812 170.332031 C 172.902344 170.445312 172.796875 170.558594 172.695312 170.675781 C 172.644531 170.734375 172.597656 170.792969 172.554688 170.859375 C 172.496094 170.910156 172.441406 170.964844 172.390625 171.027344 C 172.292969 171.144531 172.195312 171.261719 172.101562 171.382812 C 172.101562 171.382812 172.097656 171.382812 172.097656 171.382812 C 169.296875 174.871094 167.75 179.261719 167.75 183.746094 C 167.75 194.632812 176.609375 203.492188 187.496094 203.492188 L 187.535156 203.492188 C 188.503906 203.492188 189.273438 202.707031 189.273438 201.734375 C 189.273438 200.765625 188.46875 199.976562 187.496094 199.976562 C 178.546875 199.976562 171.265625 192.695312 171.265625 183.746094 C 171.265625 180.007812 172.503906 176.492188 174.839844 173.585938 C 174.917969 173.484375 175 173.386719 175.082031 173.289062 C 175.121094 173.242188 175.160156 173.191406 175.195312 173.140625 C 175.242188 173.097656 175.285156 173.050781 175.328125 173.003906 C 175.414062 172.910156 175.5 172.816406 175.585938 172.722656 C 176.242188 172.011719 176.203125 170.898438 175.492188 170.238281 C 174.78125 169.578125 173.667969 169.621094 173.007812 170.332031 Z M 173.007812 170.332031 " fill-opacity="1" fill-rule="nonzero"/><path fill="#5ce1e6" d="M 176.773438 185.292969 C 176.777344 185.378906 176.785156 185.460938 176.800781 185.546875 C 176.828125 185.714844 176.859375 185.878906 176.894531 186.042969 C 176.894531 186.042969 176.894531 186.046875 176.894531 186.046875 C 177.964844 191 182.425781 194.59375 187.496094 194.59375 C 193.480469 194.59375 198.347656 189.726562 198.347656 183.746094 C 198.347656 177.765625 193.480469 172.898438 187.496094 172.898438 L 187.460938 172.898438 C 186.492188 172.898438 185.722656 173.683594 185.722656 174.65625 C 185.722656 175.625 186.527344 176.414062 187.496094 176.414062 C 191.542969 176.414062 194.832031 179.703125 194.832031 183.746094 C 194.832031 187.789062 191.542969 191.078125 187.496094 191.078125 C 184.070312 191.078125 181.054688 188.652344 180.332031 185.304688 C 180.304688 185.191406 180.285156 185.078125 180.265625 184.964844 C 180.257812 184.910156 180.242188 184.855469 180.230469 184.800781 C 180.226562 184.742188 180.222656 184.683594 180.21875 184.628906 C 180.203125 184.511719 180.191406 184.398438 180.183594 184.28125 C 180.113281 183.3125 179.273438 182.589844 178.300781 182.660156 C 177.332031 182.730469 176.605469 183.574219 176.679688 184.542969 C 176.691406 184.710938 176.707031 184.878906 176.726562 185.042969 C 176.738281 185.128906 176.753906 185.210938 176.773438 185.292969 Z M 176.773438 185.292969 " fill-opacity="1" fill-rule="nonzero"/></svg>